<?xml version="1.0" encoding="utf-8"?>
<!-- Generator: Adobe Illustrator 24.3.0, SVG Export Plug-In . SVG Version: 6.00 Build 0)  -->
<svg version="1.1" id="Layer_1" xmlns="http://www.w3.org/2000/svg" xmlns:xlink="http://www.w3.org/1999/xlink" x="0px" y="0px"
	 viewBox="0 0 50 50" style="enable-background:new 0 0 50 50;" xml:space="preserve">
<style type="text/css">
	.st0{fill:#AAB2BD;}
	.st1{fill:#A8A8A8;}
	.st2{fill:#B5B5B5;}
	.st3{fill:#A0A0A0;}
	.st4{fill:#DD2C2C;}
</style>
<g>
	<path class="st0" d="M21.5,11.1l2.7-1.5L30,19.8l-2.7,1.5L21.5,11.1z"/>
	<g>
		<path class="st1" d="M46.8,28.1C46.8,28.1,46.8,28.1,46.8,28.1c0-7.6-6.2-13.8-13.8-13.8s-13.8,6.2-13.8,13.8v0H46.8z"/>
		<path class="st1" d="M19.3,45.7c5.1,0,9.2-4.1,9.2-9.2L19.3,45.7z"/>
		<path class="st1" d="M36.2,27.7l-16.9,0.4v17.6l8.9-7.4L36.2,27.7z"/>
	</g>
	<path class="st2" d="M26.9,33.4c0.3,1.4,0.9,2.7,1.5,3.9c4.1,7.6,13.8,12.2,13.8,12.2H43V34.2c0-0.8-0.7-1.5-1.5-1.5h-2.3l0-2.3
		l6.1,0l0,6.9l3.1,0V16.6L26.9,33.4z"/>
	<path class="st3" d="M26.9,33.4c0,8.9,7.2,16.1,16.1,16.1L26.9,33.4z"/>
	<path class="st2" d="M48.3,40.3L48.3,40.3l0-6.1c0,0,0,0,0,0c-1.7,0-3.1,1.4-3.1,3.1C45.3,38.9,46.7,40.3,48.3,40.3z"/>
	<path class="st4" d="M9.2,14.3c-2.4,4.2-3.6,8.8-3.7,13.3c0,0,0,9.2,0,9.2c0,2.2-1.9,2.4-3.6,2.7c-0.1,2,2.2,3.6,4,3.7
		C11.7,43.5,17,36.9,17,31.4c0,0,0-3.8,0-3.8c0.1-2.6,0.8-5.2,2.1-7.6c4.4-7.7,14.3-10.3,22-5.9l5.7-9.9C33.6-3.4,16.8,1.1,9.2,14.3
		z"/>
</g>
</svg>
